<mxfile host="app.diagrams.net" modified="2021-05-25T09:22:07.499Z" agent="5.0 (Windows NT 10.0; Win64; x64) AppleWebKit/537.36 (KHTML, like Gecko) Chrome/89.0.4389.114 Safari/537.36" etag="yGRkA4ZRfFoNOJ-d8gQw" version="14.6.10" type="github">
  <diagram id="EIUvx_WTfValaaLSzWSA" name="Page-1">
    <mxGraphModel dx="569" dy="282" grid="1" gridSize="10" guides="1" tooltips="1" connect="1" arrows="1" fold="1" page="1" pageScale="1" pageWidth="2339" pageHeight="3300" math="0" shadow="0">
      <root>
        <mxCell id="0" />
        <mxCell id="1" parent="0" />
        <mxCell id="wL_N4KhOiFs88ttU1WfU-1" value="" style="rounded=1;whiteSpace=wrap;html=1;fillColor=#f8cecc;strokeColor=#b85450;" vertex="1" parent="1">
          <mxGeometry x="470" y="530" width="500" height="60" as="geometry" />
        </mxCell>
        <mxCell id="wL_N4KhOiFs88ttU1WfU-2" value="&lt;font style=&quot;font-size: 20px&quot;&gt;&lt;b&gt;我&lt;/b&gt;&lt;/font&gt;" style="ellipse;whiteSpace=wrap;html=1;aspect=fixed;fillColor=#fff2cc;strokeColor=#d6b656;" vertex="1" parent="1">
          <mxGeometry x="590" y="535" width="50" height="50" as="geometry" />
        </mxCell>
        <mxCell id="wL_N4KhOiFs88ttU1WfU-3" value="&lt;font style=&quot;font-size: 20px&quot;&gt;&lt;b&gt;太&lt;/b&gt;&lt;/font&gt;" style="ellipse;whiteSpace=wrap;html=1;aspect=fixed;fillColor=#fff2cc;strokeColor=#d6b656;" vertex="1" parent="1">
          <mxGeometry x="670" y="535" width="50" height="50" as="geometry" />
        </mxCell>
        <mxCell id="wL_N4KhOiFs88ttU1WfU-4" value="&lt;font style=&quot;font-size: 20px&quot;&gt;&lt;b&gt;开&lt;/b&gt;&lt;/font&gt;" style="ellipse;whiteSpace=wrap;html=1;aspect=fixed;fillColor=#fff2cc;strokeColor=#d6b656;" vertex="1" parent="1">
          <mxGeometry x="740" y="535" width="50" height="50" as="geometry" />
        </mxCell>
        <mxCell id="wL_N4KhOiFs88ttU1WfU-5" value="&lt;font style=&quot;font-size: 20px&quot;&gt;&lt;b&gt;心&lt;/b&gt;&lt;/font&gt;" style="ellipse;whiteSpace=wrap;html=1;aspect=fixed;fillColor=#fff2cc;strokeColor=#d6b656;" vertex="1" parent="1">
          <mxGeometry x="820" y="535" width="50" height="50" as="geometry" />
        </mxCell>
        <mxCell id="wL_N4KhOiFs88ttU1WfU-6" value="&lt;font style=&quot;font-size: 20px&quot;&gt;&lt;b&gt;了&lt;/b&gt;&lt;/font&gt;" style="ellipse;whiteSpace=wrap;html=1;aspect=fixed;fillColor=#fff2cc;strokeColor=#d6b656;" vertex="1" parent="1">
          <mxGeometry x="900" y="535" width="50" height="50" as="geometry" />
        </mxCell>
        <mxCell id="wL_N4KhOiFs88ttU1WfU-7" value="&lt;font style=&quot;font-size: 20px&quot;&gt;&lt;b&gt;[CLS]&lt;/b&gt;&lt;/font&gt;" style="ellipse;whiteSpace=wrap;html=1;fillColor=#fff2cc;strokeColor=#d6b656;" vertex="1" parent="1">
          <mxGeometry x="490" y="535" width="80" height="50" as="geometry" />
        </mxCell>
        <mxCell id="wL_N4KhOiFs88ttU1WfU-8" value="" style="shape=singleArrow;direction=north;whiteSpace=wrap;html=1;arrowWidth=0.32222222222222224;arrowSize=0.45;fillColor=#dae8fc;strokeColor=#6c8ebf;" vertex="1" parent="1">
          <mxGeometry x="630" y="470" width="180" height="60" as="geometry" />
        </mxCell>
        <mxCell id="wL_N4KhOiFs88ttU1WfU-9" value="&lt;font style=&quot;font-size: 30px&quot;&gt;&lt;b&gt;BERT&lt;/b&gt;&lt;/font&gt;" style="rounded=1;whiteSpace=wrap;html=1;fillColor=#d5e8d4;strokeColor=#82b366;" vertex="1" parent="1">
          <mxGeometry x="470" y="410" width="500" height="60" as="geometry" />
        </mxCell>
        <mxCell id="wL_N4KhOiFs88ttU1WfU-10" value="" style="rounded=1;whiteSpace=wrap;html=1;fillColor=#fff2cc;strokeColor=#d6b656;" vertex="1" parent="1">
          <mxGeometry x="470" y="210" width="500" height="140" as="geometry" />
        </mxCell>
        <mxCell id="wL_N4KhOiFs88ttU1WfU-11" value="" style="shape=singleArrow;direction=north;whiteSpace=wrap;html=1;arrowWidth=0.32222222222222224;arrowSize=0.45;fillColor=#dae8fc;strokeColor=#6c8ebf;" vertex="1" parent="1">
          <mxGeometry x="630" y="350" width="180" height="60" as="geometry" />
        </mxCell>
        <mxCell id="wL_N4KhOiFs88ttU1WfU-59" style="edgeStyle=orthogonalEdgeStyle;rounded=0;orthogonalLoop=1;jettySize=auto;html=1;exitX=0.5;exitY=0;exitDx=0;exitDy=0;entryX=0.5;entryY=1;entryDx=0;entryDy=0;" edge="1" parent="1" source="wL_N4KhOiFs88ttU1WfU-12" target="wL_N4KhOiFs88ttU1WfU-48">
          <mxGeometry relative="1" as="geometry" />
        </mxCell>
        <mxCell id="wL_N4KhOiFs88ttU1WfU-12" value="&lt;br&gt;..." style="rounded=1;whiteSpace=wrap;html=1;fillColor=#f8cecc;strokeColor=#b85450;" vertex="1" parent="1">
          <mxGeometry x="500" y="220" width="40" height="120" as="geometry" />
        </mxCell>
        <mxCell id="wL_N4KhOiFs88ttU1WfU-13" value="" style="ellipse;whiteSpace=wrap;html=1;aspect=fixed;" vertex="1" parent="1">
          <mxGeometry x="510" y="230" width="20" height="20" as="geometry" />
        </mxCell>
        <mxCell id="wL_N4KhOiFs88ttU1WfU-14" value="" style="ellipse;whiteSpace=wrap;html=1;aspect=fixed;" vertex="1" parent="1">
          <mxGeometry x="510" y="260" width="20" height="20" as="geometry" />
        </mxCell>
        <mxCell id="wL_N4KhOiFs88ttU1WfU-15" value="" style="ellipse;whiteSpace=wrap;html=1;aspect=fixed;" vertex="1" parent="1">
          <mxGeometry x="510" y="310" width="20" height="20" as="geometry" />
        </mxCell>
        <mxCell id="wL_N4KhOiFs88ttU1WfU-28" value="&lt;br&gt;..." style="rounded=1;whiteSpace=wrap;html=1;fillColor=#f8cecc;strokeColor=#b85450;" vertex="1" parent="1">
          <mxGeometry x="595" y="220" width="40" height="120" as="geometry" />
        </mxCell>
        <mxCell id="wL_N4KhOiFs88ttU1WfU-29" value="" style="ellipse;whiteSpace=wrap;html=1;aspect=fixed;" vertex="1" parent="1">
          <mxGeometry x="605" y="230" width="20" height="20" as="geometry" />
        </mxCell>
        <mxCell id="wL_N4KhOiFs88ttU1WfU-30" value="" style="ellipse;whiteSpace=wrap;html=1;aspect=fixed;" vertex="1" parent="1">
          <mxGeometry x="605" y="260" width="20" height="20" as="geometry" />
        </mxCell>
        <mxCell id="wL_N4KhOiFs88ttU1WfU-31" value="" style="ellipse;whiteSpace=wrap;html=1;aspect=fixed;" vertex="1" parent="1">
          <mxGeometry x="605" y="310" width="20" height="20" as="geometry" />
        </mxCell>
        <mxCell id="wL_N4KhOiFs88ttU1WfU-32" value="&lt;br&gt;..." style="rounded=1;whiteSpace=wrap;html=1;fillColor=#f8cecc;strokeColor=#b85450;" vertex="1" parent="1">
          <mxGeometry x="675" y="220" width="40" height="120" as="geometry" />
        </mxCell>
        <mxCell id="wL_N4KhOiFs88ttU1WfU-33" value="" style="ellipse;whiteSpace=wrap;html=1;aspect=fixed;" vertex="1" parent="1">
          <mxGeometry x="685" y="230" width="20" height="20" as="geometry" />
        </mxCell>
        <mxCell id="wL_N4KhOiFs88ttU1WfU-34" value="" style="ellipse;whiteSpace=wrap;html=1;aspect=fixed;" vertex="1" parent="1">
          <mxGeometry x="685" y="260" width="20" height="20" as="geometry" />
        </mxCell>
        <mxCell id="wL_N4KhOiFs88ttU1WfU-35" value="" style="ellipse;whiteSpace=wrap;html=1;aspect=fixed;" vertex="1" parent="1">
          <mxGeometry x="685" y="310" width="20" height="20" as="geometry" />
        </mxCell>
        <mxCell id="wL_N4KhOiFs88ttU1WfU-36" value="&lt;br&gt;..." style="rounded=1;whiteSpace=wrap;html=1;fillColor=#f8cecc;strokeColor=#b85450;" vertex="1" parent="1">
          <mxGeometry x="745" y="220" width="40" height="120" as="geometry" />
        </mxCell>
        <mxCell id="wL_N4KhOiFs88ttU1WfU-37" value="" style="ellipse;whiteSpace=wrap;html=1;aspect=fixed;" vertex="1" parent="1">
          <mxGeometry x="755" y="230" width="20" height="20" as="geometry" />
        </mxCell>
        <mxCell id="wL_N4KhOiFs88ttU1WfU-38" value="" style="ellipse;whiteSpace=wrap;html=1;aspect=fixed;" vertex="1" parent="1">
          <mxGeometry x="755" y="260" width="20" height="20" as="geometry" />
        </mxCell>
        <mxCell id="wL_N4KhOiFs88ttU1WfU-39" value="" style="ellipse;whiteSpace=wrap;html=1;aspect=fixed;" vertex="1" parent="1">
          <mxGeometry x="755" y="310" width="20" height="20" as="geometry" />
        </mxCell>
        <mxCell id="wL_N4KhOiFs88ttU1WfU-40" value="&lt;br&gt;..." style="rounded=1;whiteSpace=wrap;html=1;fillColor=#f8cecc;strokeColor=#b85450;" vertex="1" parent="1">
          <mxGeometry x="825" y="220" width="40" height="120" as="geometry" />
        </mxCell>
        <mxCell id="wL_N4KhOiFs88ttU1WfU-41" value="" style="ellipse;whiteSpace=wrap;html=1;aspect=fixed;" vertex="1" parent="1">
          <mxGeometry x="835" y="230" width="20" height="20" as="geometry" />
        </mxCell>
        <mxCell id="wL_N4KhOiFs88ttU1WfU-42" value="" style="ellipse;whiteSpace=wrap;html=1;aspect=fixed;" vertex="1" parent="1">
          <mxGeometry x="835" y="260" width="20" height="20" as="geometry" />
        </mxCell>
        <mxCell id="wL_N4KhOiFs88ttU1WfU-43" value="" style="ellipse;whiteSpace=wrap;html=1;aspect=fixed;" vertex="1" parent="1">
          <mxGeometry x="835" y="310" width="20" height="20" as="geometry" />
        </mxCell>
        <mxCell id="wL_N4KhOiFs88ttU1WfU-44" value="&lt;br&gt;..." style="rounded=1;whiteSpace=wrap;html=1;fillColor=#f8cecc;strokeColor=#b85450;" vertex="1" parent="1">
          <mxGeometry x="905" y="220" width="40" height="120" as="geometry" />
        </mxCell>
        <mxCell id="wL_N4KhOiFs88ttU1WfU-45" value="" style="ellipse;whiteSpace=wrap;html=1;aspect=fixed;" vertex="1" parent="1">
          <mxGeometry x="915" y="230" width="20" height="20" as="geometry" />
        </mxCell>
        <mxCell id="wL_N4KhOiFs88ttU1WfU-46" value="" style="ellipse;whiteSpace=wrap;html=1;aspect=fixed;" vertex="1" parent="1">
          <mxGeometry x="915" y="260" width="20" height="20" as="geometry" />
        </mxCell>
        <mxCell id="wL_N4KhOiFs88ttU1WfU-47" value="" style="ellipse;whiteSpace=wrap;html=1;aspect=fixed;" vertex="1" parent="1">
          <mxGeometry x="915" y="310" width="20" height="20" as="geometry" />
        </mxCell>
        <mxCell id="wL_N4KhOiFs88ttU1WfU-48" value="" style="rounded=1;whiteSpace=wrap;html=1;fillColor=#dae8fc;strokeColor=#6c8ebf;" vertex="1" parent="1">
          <mxGeometry x="470" y="130" width="100" height="60" as="geometry" />
        </mxCell>
        <mxCell id="wL_N4KhOiFs88ttU1WfU-53" value="" style="ellipse;whiteSpace=wrap;html=1;aspect=fixed;fillColor=#60a917;strokeColor=#2D7600;fontColor=#ffffff;" vertex="1" parent="1">
          <mxGeometry x="480" y="145" width="30" height="30" as="geometry" />
        </mxCell>
        <mxCell id="wL_N4KhOiFs88ttU1WfU-54" value="" style="ellipse;whiteSpace=wrap;html=1;aspect=fixed;fillColor=#60a917;strokeColor=#2D7600;fontColor=#ffffff;" vertex="1" parent="1">
          <mxGeometry x="530" y="145" width="30" height="30" as="geometry" />
        </mxCell>
        <mxCell id="wL_N4KhOiFs88ttU1WfU-55" value="&lt;b style=&quot;font-size: 17px&quot;&gt;正面&lt;br&gt;情感&lt;/b&gt;" style="text;html=1;align=center;verticalAlign=middle;resizable=0;points=[];autosize=1;strokeColor=none;" vertex="1" parent="1">
          <mxGeometry x="470" y="90" width="50" height="40" as="geometry" />
        </mxCell>
        <mxCell id="wL_N4KhOiFs88ttU1WfU-56" value="&lt;b style=&quot;font-size: 17px&quot;&gt;负面&lt;br&gt;情感&lt;/b&gt;" style="text;html=1;align=center;verticalAlign=middle;resizable=0;points=[];autosize=1;strokeColor=none;" vertex="1" parent="1">
          <mxGeometry x="520" y="90" width="50" height="40" as="geometry" />
        </mxCell>
        <mxCell id="wL_N4KhOiFs88ttU1WfU-57" value="" style="verticalLabelPosition=bottom;verticalAlign=top;html=1;shape=mxgraph.basic.tick;fillColor=#f0a30a;strokeColor=#BD7000;fontColor=#000000;" vertex="1" parent="1">
          <mxGeometry x="480" y="40" width="40" height="40" as="geometry" />
        </mxCell>
      </root>
    </mxGraphModel>
  </diagram>
</mxfile>
